
<svg width="31px" height="31px" viewBox="0 0 31 31" version="1.1" xmlns="http://www.w3.org/2000/svg" xmlns:xlink="http://www.w3.org/1999/xlink">
    <g id="图片目录说明" stroke="none" stroke-width="1" fill="none" fill-rule="evenodd">
        <g id="Artboard" transform="translate(-324.000000, -572.000000)" fill="#FFFFFF" fill-rule="nonzero">
            <g id="Group" transform="translate(324.000000, 572.000000)">
                <path d="M6.88888892,19.2405857 L9.32583334,21.6779562 C10.6698716,23.0237258 10.6690631,25.2043119 9.32402726,26.5490841 C7.97899143,27.8938564 5.79878636,27.8938564 4.45375053,26.5490841 C3.1087147,25.2043119 3.10790619,23.0237258 4.45194445,21.6779562 L6.88888892,19.2405857 M6.88888892,14.3744572 L2.01500002,19.2405857 C-0.673076543,21.9321249 -0.671459567,26.2932972 2.01861212,28.9828416 C4.70868381,31.6723861 9.06909398,31.6723861 11.7591657,28.9828416 C14.4492374,26.2932972 14.4508543,21.9321249 11.7627778,19.2405857 L6.88888892,14.3744572 Z M15.5,4.90057891 L17.9369444,7.33794942 C19.2809827,8.68371902 19.2801742,10.8643051 17.9351384,12.2090774 C16.5901025,13.5538496 14.4098975,13.5538496 13.0648616,12.2090774 C11.7198258,10.8643051 11.7190173,8.68371902 13.0630556,7.33794942 L15.5,4.87474106 M15.5,0 L10.6261111,4.87474106 C7.93803456,7.56628028 7.93965155,11.9274525 10.6297232,14.616997 C13.3197949,17.3065415 17.6802051,17.3065415 20.3702768,14.616997 C23.0603485,11.9274525 23.0619654,7.56628028 20.3738889,4.87474106 L15.5,0 Z M24.1111111,19.2405857 L26.5480556,21.6779562 C27.8920938,23.0237258 27.8912853,25.2043119 26.5462495,26.5490841 C25.2012136,27.8938564 23.0210086,27.8938564 21.6759727,26.5490841 C20.3309369,25.2043119 20.3301284,23.0237258 21.6741667,21.6779562 L24.1111111,19.2405857 M24.1111111,14.3744572 L19.2372222,19.2405857 C16.5491457,21.9321249 16.5507626,26.2932972 19.2408343,28.9828416 C21.930906,31.6723861 26.2913162,31.6723861 28.9813879,28.9828416 C31.6714596,26.2932972 31.6730765,21.9321249 28.985,19.2405857 L24.1111111,14.3744572 Z" id="Shape"></path>
            </g>
        </g>
    </g>
</svg>