<svg width="23px" height="23px" viewBox="0 0 23 23" version="1.1" xmlns="http://www.w3.org/2000/svg" xmlns:xlink="http://www.w3.org/1999/xlink">
    <g id="用户页" stroke="none" stroke-width="1" fill="none" fill-rule="evenodd">
        <g id="用户页-未登录" transform="translate(-87.000000, -639.000000)" fill="#1296DB" fill-rule="nonzero">
            <g transform="translate(27.000000, 49.000000)" id="菜单栏">
                <g transform="translate(26.000000, 369.000000)">
                    <g id="关于羊谷" transform="translate(28.000000, 215.000000)">
                        <g id="Group" transform="translate(6.000000, 6.000000)">
                            <path d="M11.5,0 C5.152,0 0,5.152 0,11.5 C0,17.848 5.152,23 11.5,23 C17.848,23 23,17.848 23,11.5 C23,5.152 17.848,0 11.5,0 Z M12.903,17.388 C12.903,18.009 12.397,18.515 11.776,18.515 L11.2125,18.515 C10.5915,18.515 10.0855,18.009 10.0855,17.388 L10.0855,10.6605 C10.0855,10.0395 10.5915,9.5335 11.2125,9.5335 L11.776,9.5335 C12.397,9.5335 12.903,10.0395 12.903,10.6605 L12.903,17.388 Z M11.5,7.8545 C10.7295,7.8545 10.097,7.222 10.097,6.4515 C10.097,5.681 10.7295,5.0485 11.5,5.0485 C12.2705,5.0485 12.903,5.681 12.903,6.4515 C12.903,7.222 12.2705,7.8545 11.5,7.8545 L11.5,7.8545 Z" id="Shape"></path>
                        </g>
                    </g>
                </g>
            </g>
        </g>
    </g>
</svg>