<svg width="23px" height="22px" viewBox="0 0 23 22" version="1.1" xmlns="http://www.w3.org/2000/svg" xmlns:xlink="http://www.w3.org/1999/xlink">
    <g id="用户页" stroke="none" stroke-width="1" fill="none" fill-rule="evenodd">
        <g id="用户页-未登录" transform="translate(-86.000000, -507.000000)" fill="#EA9518" fill-rule="nonzero">
            <g transform="translate(27.000000, 49.000000)" id="菜单栏">
                <g transform="translate(26.000000, 369.000000)">
                    <g id="我的收藏" transform="translate(28.000000, 83.000000)">
                        <g id="Group" transform="translate(5.000000, 6.000000)">
                            <path d="M6.72964133,21.6991209 C5.76161591,22.2891626 4.49573652,21.983988 3.90779119,21.0233371 C3.62907171,20.567222 3.54244541,20.0225277 3.66628796,19.5047979 L4.91922967,14.2629606 C4.94963132,14.1386505 4.90800029,14.0080033 4.81084074,13.9228124 L0.709598507,10.4169723 C-0.142275352,9.68929192 -0.240601664,8.41669737 0.487645536,7.56830101 C0.83764679,7.15947369 1.33966386,6.90480145 1.88203913,6.86092798 L7.26439847,6.4308068 C7.38170003,6.42121721 7.48663893,6.34534666 7.53465208,6.22998957 L9.60841724,1.25440438 C10.0405355,0.217882891 11.2423016,-0.277109005 12.290828,0.15808898 C12.7908914,0.366572721 13.186548,0.760701668 13.3913927,1.25440438 L15.4651579,6.22970754 C15.513171,6.34534666 15.61811,6.42149926 15.7354115,6.4308068 L21.1183459,6.86121 C22.2470859,6.95146493 23.0828596,7.93101301 22.9934459,9.04312302 C22.9514438,9.57383674 22.6990809,10.0672608 22.290499,10.4175364 L18.1892568,13.9233764 C18.0938055,14.0048879 18.0506799,14.1368858 18.0808678,14.2632427 L19.3338095,19.5050799 C19.593138,20.5895493 18.919804,21.6821981 17.8206768,21.9436554 C17.2913715,22.0696786 16.7326442,21.9816619 16.2701687,21.699403 L11.6617697,18.8902182 C11.5628004,18.8292758 11.4370096,18.8292758 11.3380403,18.8902182 L6.72935382,21.699403 L6.72964133,21.6991209 Z" id="Path"></path>
                        </g>
                    </g>
                </g>
            </g>
        </g>
    </g>
</svg>