<svg width="23px" height="20px" viewBox="0 0 23 20" version="1.1" xmlns="http://www.w3.org/2000/svg" xmlns:xlink="http://www.w3.org/1999/xlink">
    <g id="用户页" stroke="none" stroke-width="1" fill="none" fill-rule="evenodd">
        <g id="用户页-未登录" transform="translate(-86.000000, -442.000000)" fill="#36AB60" fill-rule="nonzero">
            <g transform="translate(27.000000, 49.000000)" id="菜单栏">
                <g transform="translate(26.000000, 369.000000)">
                    <g id="查看作物" transform="translate(28.000000, 17.000000)">
                        <g id="Group" transform="translate(5.000000, 7.000000)">
                            <path d="M23,4.44444445 L23,7.22222221 C23,9.13767465 22.2124576,10.9746751 20.8106232,12.3291045 C19.4087888,13.6835339 17.5074933,14.4444445 15.525,14.4444445 L12.65,14.4444445 L12.65,20 L10.35,20 L10.35,12.2222222 L10.37185,11.1111111 C10.6722669,7.34893841 13.9195796,4.44444445 17.825,4.44444445 L23,4.44444445 Z M4.60000001,0 C8.06531903,0.000253395829 11.142066,2.14195951 12.23945,5.31777779 C10.4614596,6.77352606 9.37121865,8.86423265 9.21839999,11.1111111 L8.05,11.1111111 C3.60410777,11.1111111 0,7.62888139 0,3.33333333 L0,0 L4.60000001,0 Z" id="Shape"></path>
                        </g>
                    </g>
                </g>
            </g>
        </g>
    </g>
</svg>