<svg width="22px" height="18px" viewBox="0 0 22 18" version="1.1" xmlns="http://www.w3.org/2000/svg" xmlns:xlink="http://www.w3.org/1999/xlink">
    <g id="用户页" stroke="none" stroke-width="1" fill="none" fill-rule="evenodd">
        <g id="用户页-未登录" transform="translate(-87.000000, -710.000000)" fill="#515151" fill-rule="nonzero">
            <g transform="translate(27.000000, 49.000000)" id="菜单栏">
                <g transform="translate(26.000000, 369.000000)">
                    <g id="新手引导" transform="translate(34.000000, 282.000000)">
                        <g id="Group" transform="translate(0.000000, 10.000000)">
                            <path d="M4.25,14.7614153 L9.5,14.7614153 C9.86394109,14.7613226 10.1754243,15.0228964 10.23875,15.3817943 C10.313,15.811403 10.667,16.0141903 11.012,15.9991691 C11.3435,16.0141903 11.684,15.8256732 11.77775,15.4238539 C11.87075,15.0250388 12.1745,14.7614153 12.5,14.7614153 L17.75,14.7614153 C18.9926407,14.7614153 20,13.7526266 20,12.5082228 L20,2.25319252 C20,1.00878865 18.9926407,0 17.75,0 L12.5,0 C11.927,0 11.41625,0.233580958 11.02325,0.603855597 C10.6101241,0.21675344 10.0657701,0.000957468035 9.5,0 L4.25,0 C3.00735931,0 2,1.00878865 2,2.25319252 L2,12.5082228 C2,13.7526266 3.00735931,14.7614153 4.25,14.7614153 Z M12.5,1.50212835 L17.75,1.50212835 C18.1642136,1.50212835 18.5,1.83839123 18.5,2.25319252 L18.5,12.5082228 C18.5,12.9230241 18.1642136,13.2592869 17.75,13.2592869 L12.5,13.2592869 C12.2438092,13.2591321 11.9897084,13.3054441 11.75,13.3959806 L11.75,2.40866281 C11.75,1.89268172 12.10325,1.50212835 12.5,1.50212835 Z M3.5,2.25319252 C3.5,1.83839123 3.83578644,1.50212835 4.25,1.50212835 L9.5,1.50212835 C9.91421356,1.50212835 10.25,1.83839123 10.25,2.25319252 L10.25,13.38847 C10.0091085,13.3032744 9.7554729,13.2598412 9.5,13.260038 L4.25,13.260038 C3.83578644,13.260038 3.5,12.9237751 3.5,12.5089738 L3.5,2.25319252 Z" id="Shape"></path>
                            <path d="M21.2651234,3 C20.8592623,3 20.5302469,3.34439634 20.5302469,3.76923076 L20.5302469,14.5384615 C20.5302469,14.9632959 20.2012314,15.3076922 19.7953703,15.3076922 L14.6512343,15.3076922 C13.8634751,15.307914 13.1355631,15.7476643 12.74129,16.4615384 L9.25870996,16.4615384 C8.86443692,15.7476643 8.13652487,15.307914 7.34876574,15.3076922 L2.20462972,15.3076922 C1.7987686,15.3076922 1.46975315,14.9632959 1.46975315,14.5384615 L1.46975315,3.76923076 C1.46975315,3.34439634 1.1407377,3 0.734876574,3 C0.329015449,3 0,3.34439634 0,3.76923076 L0,14.5384615 C0,15.8129647 0.987046348,16.8461538 2.20462972,16.8461538 L7.34876574,16.8461538 C7.68607409,16.8461538 7.97782009,17.0861538 8.06086114,17.4223076 C8.14440581,17.7624518 8.43743565,18.0001743 8.77295654,18 L13.2277783,18 C13.5628821,18 13.8560978,17.7623076 13.9398737,17.4223076 C14.0239144,17.0830516 14.3164109,16.8461492 14.6512343,16.8461538 L19.7953703,16.8461538 C21.0129537,16.8461538 22,15.8129647 22,14.5384615 L22,3.76923076 C22,3.34439634 21.6709846,3 21.2651234,3 Z" id="Path"></path>
                            <path d="M5.72254335,4.33333333 L8.27745665,4.33333333 C8.67650632,4.33333333 9,4.0348565 9,3.66666667 C9,3.29847683 8.67650632,3 8.27745665,3 L5.72254335,3 C5.32349368,3 5,3.29847683 5,3.66666667 C5,4.0348565 5.32349368,4.33333333 5.72254335,4.33333333 Z M5.72254335,7 L8.27745665,7 C8.67650632,7 9,6.70152317 9,6.33333333 C9,5.9651435 8.67650632,5.66666667 8.27745665,5.66666667 L5.72254335,5.66666667 C5.32349368,5.66666667 5,5.9651435 5,6.33333333 C5,6.70152317 5.32349368,7 5.72254335,7 Z" id="Shape"></path>
                        </g>
                    </g>
                </g>
            </g>
        </g>
    </g>
</svg>