<svg width="53px" height="49px" viewBox="0 0 53 49" version="1.1" xmlns="http://www.w3.org/2000/svg" xmlns:xlink="http://www.w3.org/1999/xlink">
    <g id="用户页" stroke="none" stroke-width="1" fill="none" fill-rule="evenodd">
        <g id="用户页-未登录" transform="translate(-261.000000, -302.000000)" fill="#13227A" fill-rule="nonzero">
            <g transform="translate(27.000000, 49.000000)" id="中部浮动菜单">
                <g transform="translate(54.000000, 209.000000)">
                    <g id="Group" transform="translate(180.000000, 44.000000)">
                        <path d="M51.1075062,26 L1.89249378,26 C0.844499952,26 0,25.1075269 0,24 C0,22.8924731 0.844499893,22 1.89249378,22 L51.1075062,22 C52.1555,22 53,22.8924731 53,24 C53,25.1075269 52.1555,26 51.1075062,26 Z" id="Path"></path>
                        <path d="M46.3101937,49 L34.899997,49 C33.8478482,49 33,48.1571087 33,47.1111111 C33,46.0651135 33.8478481,45.2222222 34.899997,45.2222222 L46.2999787,45.2222222 C47.3521275,45.2222222 48.1999756,44.3793309 48.1999756,43.3333333 L48.1999756,33.8888889 C48.1999756,32.8428913 49.0478237,32 50.0999726,32 C51.1521215,32 52,32.8428913 52,33.8888889 L52,43.3333333 C52.0101846,46.4510156 49.4462102,49 46.3101937,49 Z" id="Path"></path>
                        <path d="M17.111111,49 L7.66666665,49 C4.53882916,49 2,46.4611708 2,43.3333333 L2,33.8888889 C2,32.8428913 2.84289126,32 3.8888889,32 C4.93488654,32 5.7777778,32.8428913 5.7777778,33.888889 L5.7777778,43.3333334 C5.7777778,44.379331 6.63082438,45.2222223 7.66666671,45.2222223 L17.1111111,45.2222223 C18.1571087,45.2222223 19,46.0651136 19,47.1111112 C19,48.1571087 18.1571087,49 17.111111,49 Z" id="Path"></path>
                        <path d="M3.88888891,17 C2.84289132,17 2,16.1571087 2,15.1111111 L2,5.66666667 C2,2.53882916 4.53882916,0 7.66666667,0 L17.1111111,0 C18.1571087,0 19,0.842891265 19,1.88888891 C19,2.93488655 18.1571087,3.77777782 17.1111111,3.77777782 L7.66666667,3.77777782 C6.63082439,3.77777782 5.77777776,4.63082439 5.77777776,5.66666673 L5.77777776,15.1111112 C5.77777782,16.1571087 4.93488655,17 3.88888891,17 Z" id="Path"></path>
                        <path d="M50.1101328,17 C49.0579874,17 48.2101419,16.1571087 48.2101419,15.1111111 L48.2101419,5.66666667 C48.2101419,4.63082439 47.3622966,3.77777776 46.310151,3.77777776 L34.8999909,3.77777782 C33.8478454,3.77777782 33,2.93488655 33,1.88888891 C33,0.842891265 33.8478454,0 34.8999909,0 L46.299936,0 C49.4461575,0 52,2.53882916 52,5.66666667 L52,15.1111111 C52.0101237,16.1571087 51.1622783,17 50.1101328,17 Z" id="Path"></path>
                    </g>
                </g>
            </g>
        </g>
    </g>
</svg>