<svg width="29px" height="28px" viewBox="0 0 29 28" version="1.1" xmlns="http://www.w3.org/2000/svg" xmlns:xlink="http://www.w3.org/1999/xlink">
    <g id="用户页" stroke="none" stroke-width="1" fill="none" fill-rule="evenodd">
        <g id="用户页-关于羊谷" transform="translate(-109.000000, -589.000000)" fill="#FFFFFF" fill-rule="nonzero">
            <g id="用户页-我的收藏" transform="translate(23.000000, 29.000000)">
                <g id="联系客服" transform="translate(73.000000, 548.000000)">
                    <g id="Group" transform="translate(13.000000, 12.000000)">
                        <path d="M27.0550667,12.3232021 C26.9255333,5.50641571 21.5653667,0 14.9833333,0 L14.0166667,0 C7.43463333,0 2.07446667,5.50641571 1.94493333,12.3222491 C0.7888,12.9826759 0,14.2015588 0,15.6110411 L0,17.5170348 C0,19.6193458 1.7342,21.3290222 3.86666667,21.3290222 C5.99913333,21.3290222 7.73333333,19.6193458 7.73333333,17.5170348 L7.73333333,15.6110411 C7.73026181,13.5217121 6.02259483,11.8237465 3.9034,11.8028658 C4.28136667,6.28024914 8.66713333,1.90599367 14.0166667,1.90599367 L14.9833333,1.90599367 C20.3338333,1.90599367 24.7186333,6.28024914 25.0966,11.8028658 C22.9774052,11.8237465 21.2697382,13.5217121 21.2666667,15.6110411 L21.2666667,17.5170348 C21.2666667,19.2381471 22.4363333,20.6790783 24.0274667,21.1508117 C22.5914716,23.0142882 20.5409152,24.3253693 18.2294,24.8579694 C17.9021328,23.8904222 16.9845511,23.2370956 15.95,23.2350158 C14.6153119,23.2350158 13.5333333,24.3016939 13.5333333,25.6175079 C13.5333333,26.933322 14.6153119,28 15.95,28 C16.78714,27.998902 17.5635755,27.5690774 18.0003,26.8649808 C21.5264228,26.2568257 24.6014368,24.1474808 26.4054667,21.0993499 C27.9115333,20.5790136 29,19.1781083 29,17.5170348 L29,15.6110411 C29,14.2015588 28.2112,12.9826759 27.0550667,12.3232021 Z M5.8,15.6110411 L5.8,17.5170348 C5.8,18.5681903 4.9329,19.4230285 3.86666667,19.4230285 C2.80043333,19.4230285 1.93333333,18.5681903 1.93333333,17.5170348 L1.93333333,15.6110411 C1.93333333,14.5598856 2.80043333,13.7050475 3.86666667,13.7050475 C4.9329,13.7050475 5.8,14.5598856 5.8,15.6110411 Z M27.0666667,17.5170348 C27.0666667,18.5386474 26.245,19.3687077 25.2203333,19.4144515 L25.1449333,19.3791906 C25.1381667,19.3944386 25.1275333,19.4068275 25.1207667,19.4211225 C24.0586805,19.4143169 23.2010397,18.5641234 23.2,17.5170348 L23.2,15.6110411 C23.2,14.5598856 24.0671,13.7050475 25.1333333,13.7050475 C26.1995667,13.7050475 27.0666667,14.5598856 27.0666667,15.6110411 L27.0666667,17.5170348 Z" id="Shape"></path>
                    </g>
                </g>
            </g>
        </g>
    </g>
</svg>