<svg width="14px" height="14px" viewBox="0 0 14 14" version="1.1" xmlns="http://www.w3.org/2000/svg" xmlns:xlink="http://www.w3.org/1999/xlink">
    <g id="功能页" stroke="none" stroke-width="1" fill="none" fill-rule="evenodd">
        <g id="功能页-作物列表" transform="translate(-237.000000, -322.000000)" fill="#BFBFBF" fill-rule="nonzero">
            <g id="存在作物列表" transform="translate(43.000000, 49.000000)">
                <g id="作物列表" transform="translate(56.000000, 206.000000)">
                    <g id="单条作物" transform="translate(1.000000, 0.000000)">
                        <g id="Group-2" transform="translate(137.000000, 66.000000)">
                            <g id="Group" transform="translate(0.000000, 1.147750)">
                                <path d="M6.9,12.6252446 C3.72945,12.6252446 1.15,10.0508425 1.15,6.88649706 C1.15,3.72215166 3.72945,1.14774951 6.9,1.14774951 C10.07055,1.14774951 12.65,3.72215166 12.65,6.88649706 C12.65,10.0508425 10.07055,12.6252446 6.9,12.6252446 M6.9,0 C3.095225,0 0,3.08916781 0,6.88649706 C0,10.6838263 3.095225,13.7729941 6.9,13.7729941 C10.704775,13.7729941 13.8,10.6838263 13.8,6.88649706 C13.8,3.08916781 10.704775,0 6.9,0" id="Shape"></path>
                                <path d="M7.03904825,6.3455276 L7.03904825,2.89039159 C7.03904825,2.5618415 6.75048497,2.29549902 6.39452412,2.29549902 C6.03856328,2.29549902 5.75,2.5618415 5.75,2.89039159 L5.75,6.59181313 C5.75,6.74945966 5.81767503,6.90115726 5.93884557,7.01240217 L8.09993496,9.00707694 C8.22054806,9.11904122 8.3845506,9.18199609 8.55561351,9.18199609 C8.72667642,9.18199609 8.89067896,9.11904122 9.01129207,9.00707694 C9.26290264,8.77477148 9.26290264,8.39820431 9.01129207,8.16589885 L7.03904825,6.3455276 Z" id="Path"></path>
                            </g>
                        </g>
                    </g>
                </g>
            </g>
        </g>
    </g>
</svg>