<svg width="18px" height="18px" viewBox="0 0 18 18" version="1.1" xmlns="http://www.w3.org/2000/svg" xmlns:xlink="http://www.w3.org/1999/xlink">
    <g id="功能页" stroke="none" stroke-width="1" fill="none" fill-rule="evenodd">
        <g id="功能页-二维码溯源卡片" transform="translate(-209.000000, -992.000000)" fill="#72A884" fill-rule="nonzero">
            <g id="溯源卡片" transform="translate(43.000000, 49.000000)">
                <g id="删除图标" transform="translate(166.000000, 943.000000)">
                    <path d="M17.5195286,17.5202914 C16.8803569,18.1599029 15.839337,18.1599029 15.1987093,17.5202914 L0.497760565,2.80922763 C-0.141411121,2.16815919 -0.142867093,1.12787995 0.497760565,0.486811503 C1.13547628,-0.154256938 2.17649622,-0.154256938 2.82003583,0.486811503 L17.5195286,15.1964183 C18.1587003,15.8404007 18.1616123,16.879223 17.5195286,17.5202914 L17.5195286,17.5202914 Z M17.502057,2.80194276 L2.80256416,17.5115496 C2.16048053,18.154075 1.12091656,18.154075 0.480288902,17.5115496 C-0.160338756,16.8719381 -0.160338756,15.8331158 0.481744874,15.1891334 L15.1812377,0.480983609 C15.8233213,-0.160084833 16.8643413,-0.160084833 17.502057,0.479526635 C18.1441406,1.12059508 18.1412287,2.16087432 17.502057,2.80194276 L17.502057,2.80194276 Z" id="Shape"></path>
                </g>
            </g>
        </g>
    </g>
</svg>