<svg width="29px" height="27px" viewBox="0 0 29 27" version="1.1" xmlns="http://www.w3.org/2000/svg" xmlns:xlink="http://www.w3.org/1999/xlink">
    <g id="用户页" stroke="none" stroke-width="1" fill="none" fill-rule="evenodd">
        <g id="用户页-扫码追溯" transform="translate(-272.000000, -995.000000)" fill="#E38D4A" fill-rule="nonzero">
            <g id="Group" transform="translate(272.000000, 995.000000)">
                <path d="M14.4990682,0 C13.687939,0 12.9498239,0.438435052 12.6038788,1.12561625 L9.32342481,7.67059486 L1.77760375,8.74933161 C1.00223941,8.85886406 0.357299185,9.3698232 0.108291944,10.0639922 C-0.140715331,10.761723 0.0471534723,11.5302479 0.595155847,12.0540293 L6.12499506,17.3620275 L4.84264046,24.7216303 C4.71214728,25.4644428 5.04614771,26.2073569 5.70151356,26.6425016 C6.06237215,26.8783915 6.48433466,27 6.90781616,27 C7.25524569,27 7.60491912,26.9179439 7.92176212,26.7567831 L14.4998276,23.3517116 L21.0794122,26.7567491 C21.3954957,26.9179101 21.7444442,27 22.0911488,27 C22.5153898,27 22.9373178,26.8783576 23.2981763,26.6424677 C23.9535422,26.207323 24.2868177,25.4644088 24.1571185,24.7215964 L22.8747294,17.3619936 L28.4052936,12.0539954 C28.9525365,11.5298408 29.1410957,10.7616891 28.8913635,10.0639583 C28.6416312,9.36978929 27.9967256,8.85886406 27.2213267,8.7492977 L19.6755056,7.67059486 L16.395017,1.12561625 C16.0513504,0.438468963 15.3117163,0 14.4990682,0 L14.4990682,0 Z" id="Path"></path>
            </g>
        </g>
    </g>
</svg>