<svg width="27px" height="20px" viewBox="0 0 27 20" version="1.1" xmlns="http://www.w3.org/2000/svg" xmlns:xlink="http://www.w3.org/1999/xlink">
    <g id="功能页" stroke="none" stroke-width="1" fill="none" fill-rule="evenodd">
        <g id="功能页-二维码溯源卡片" transform="translate(-354.000000, -990.000000)" fill="#72A884" fill-rule="nonzero">
            <g id="Group" transform="translate(354.000000, 990.000000)">
                <path d="M26.4814076,8.67054619 L18.7675026,0.535924329 C18.5291434,0.281444942 18.2170178,0.105889201 17.873802,0.0332604094 C17.5359075,-0.0358668995 17.1844912,0.0033717965 16.8707514,0.145259793 C16.5480077,0.292422907 16.2772038,0.531557326 16.0931509,0.831922699 C15.9041508,1.13858767 15.8015507,1.49858568 15.8015507,1.86525032 L15.8015507,5.95856112 C12.3185484,6.24789287 8.98674628,7.59188547 6.19224443,9.83453978 C3.39774262,12.0771941 1.25664124,15.1251773 0.0200404222,18.621158 C-0.00414869126,18.6945144 -0.00649160815,18.7731898 0.0132904284,18.8478235 C0.0320000092,18.921654 0.072954597,18.9881387 0.130740505,19.0384891 C0.243509523,19.1376518 0.410391172,19.1475741 0.534390756,19.062489 C5.14734375,16.0491722 10.4015472,14.338515 15.8015507,14.093183 L15.8015507,18.1344941 C15.8015507,18.502492 15.9028008,18.8611567 16.0931509,19.1678217 C16.283501,19.4744867 16.5548512,19.7131521 16.8707514,19.8544846 C17.1880016,19.9971505 17.5376518,20.0358169 17.873802,19.966484 C18.2113023,19.897151 18.5218024,19.7224853 18.7675026,19.4638201 L26.4814076,11.3305315 C26.6461077,11.1558658 26.7757078,10.9492003 26.8648079,10.7198682 C27.045064,10.2563786 27.045064,9.74336585 26.8648079,9.27987618 C26.7776434,9.05441675 26.6474907,8.84756786 26.4814076,8.67054619 L26.4814076,8.67054619 Z" id="Path"></path>
            </g>
        </g>
    </g>
</svg>