<svg width="15px" height="12px" viewBox="0 0 15 12" version="1.1" xmlns="http://www.w3.org/2000/svg" xmlns:xlink="http://www.w3.org/1999/xlink">
    <g id="图片目录说明" stroke="none" stroke-width="1" fill="none" fill-rule="evenodd">
        <g id="Artboard" transform="translate(-574.000000, -564.000000)" fill="#60B86E" fill-rule="nonzero">
            <g id="Group" transform="translate(574.000000, 564.000000)">
                <path d="M12.9340931,0 L2.06590689,0 C0.924094186,0 0,0.917054987 0,2.04659832 L0,9.95340167 C0,11.0845427 0.925706911,12 2.06590689,12 L12.9340931,12 C14.0759058,12 15,11.082945 15,9.95340167 L15,2.04659832 C15,0.917054987 14.0759058,0 12.9340931,0 Z M4.23180303,2.62335241 C4.81238577,2.62335241 5.28330287,3.08986819 5.28330287,3.66502463 C5.28330287,4.24018107 4.81238577,4.70669685 4.23180303,4.70669685 C3.6512203,4.70669685 3.18030319,4.24018107 3.18030319,3.66502463 C3.18030319,3.08986819 3.6512203,2.62335241 4.23180303,2.62335241 Z M13.9581766,8.22793233 C13.8227072,8.33178007 13.627567,8.30461987 13.5243522,8.17041673 L11.2068595,5.13806417 C11.2004086,5.12847823 10.5537039,4.30728265 9.7683045,4.38556783 C9.12966348,4.45746239 8.50231159,5.13167355 7.95398345,6.33630675 C7.37340068,7.6160298 6.80410709,8.28385033 6.16385335,8.44042073 C5.43812493,8.61456533 4.81238577,8.12728 4.14955381,7.60804153 L4.06569186,7.5425376 C3.28996882,6.940221 2.91904096,7.07761947 1.42565315,8.5266942 C1.36598215,8.58580747 1.28695839,8.61456533 1.20954736,8.61456533 C1.12891087,8.61456533 1.04827438,8.5842098 0.988603377,8.5219012 C0.869261373,8.40047927 0.870874098,8.2055652 0.993441566,8.0873386 C2.34974734,6.7708694 3.17869047,6.07269338 4.44790882,7.06004527 L4.53338351,7.1255492 C5.09945168,7.56810013 5.5881088,7.94994007 6.01709493,7.84449473 C6.44446833,7.74064707 6.90570907,7.14951407 7.389528,6.08547464 C8.04268357,4.6491812 8.82001936,3.87112235 9.7037953,3.77526295 C10.8407698,3.65543869 11.6681002,4.72267341 11.7019675,4.76900546 L14.0162348,7.79816267 C14.1194495,7.93396353 14.0936459,8.12568233 13.9581766,8.22793233 Z" id="Shape"></path>
            </g>
        </g>
    </g>
</svg>