<svg width="15px" height="19px" viewBox="0 0 15 19" version="1.1" xmlns="http://www.w3.org/2000/svg" xmlns:xlink="http://www.w3.org/1999/xlink">
    <g id="功能页" stroke="none" stroke-width="1" fill="none" fill-rule="evenodd">
        <g id="功能页-作物列表" transform="translate(-101.000000, -121.000000)" fill="#FFFFFF" fill-rule="nonzero">
            <g id="存在作物列表" transform="translate(43.000000, 49.000000)">
                <g id="位置信息" transform="translate(57.806122, 71.007943)">
                    <g id="locationfill" transform="translate(0.193878, 1.074508)">
                        <path d="M7.02099237,0 C3.14987248,0 0,3.24329331 0,7.2292252 C0,11.0771446 6.29144743,17.9094196 6.55888341,18.1979314 C6.67951683,18.3287147 6.8467441,18.4016641 7.02099237,18.4016641 C7.02546027,18.4016641 7.03056645,18.4016641 7.03503435,18.4016641 C7.21438879,18.4016641 7.38353088,18.3155706 7.50161121,18.176901 L9.68003366,15.60724 C12.5745973,11.9564813 14.0419847,9.13774065 14.0419847,7.2292252 C14.0419847,3.24329331 10.8921122,0 7.02099237,0 Z M7.5610687,10.8245083 C5.77103969,10.8245083 4.32061069,9.37099334 4.32061069,7.57715582 C4.32061069,5.78331831 5.77103969,4.32980333 7.5610687,4.32980333 C9.35109771,4.32980333 10.8015267,5.78331831 10.8015267,7.57715582 C10.8015267,9.37099334 9.35109771,10.8245083 7.5610687,10.8245083 Z" id="Shape"></path>
                    </g>
                </g>
            </g>
        </g>
    </g>
</svg>