<svg t="1658912947829" class="icon" viewBox="0 0 1024 1024" version="1.1" xmlns="http://www.w3.org/2000/svg" p-id="9628" width="200" height="200"><path d="M1024 48a48 48 0 0 0-48-48c-6 0-11.68 1.232-16.976 3.232l-0.048-0.112-928 352 0.048 0.128A47.888 47.888 0 0 0 0 400c0 22.624 15.696 41.472 36.768 46.544l-0.032 0.112 435.488 105.12 105.12 435.488 0.112-0.032A47.936 47.936 0 0 0 624 1024a47.888 47.888 0 0 0 44.752-31.024l0.128 0.048 352-928-0.304-0.112A46.88 46.88 0 0 0 1024 48zM634.208 813.744l-75.552-312.992-0.112 0.032a47.968 47.968 0 0 0-35.312-35.28l0.032-0.16-312.992-75.552L893.296 130.704l-259.088 683.04z" fill="#bfbfbf" p-id="9629"></path></svg>