<svg width="15px" height="18px" viewBox="0 0 15 18" version="1.1" xmlns="http://www.w3.org/2000/svg" xmlns:xlink="http://www.w3.org/1999/xlink">
    <g id="功能页" stroke="none" stroke-width="1" fill="none" fill-rule="evenodd">
        <g id="功能页-作物地图" transform="translate(-241.000000, -924.000000)" fill="#C6C1C1" fill-rule="nonzero">
            <g id="作物详情" transform="translate(43.000000, 49.000000)">
                <g id="标签" transform="translate(40.000000, 791.000000)">
                    <g id="Group" transform="translate(158.000000, 81.000000)">
                        <g id="locationfill" transform="translate(0.000000, 3.000000)">
                            <path d="M7.41106719,0 C3.32487424,0 0,3.1725 0,7.07142857 C0,10.8353571 6.64098994,17.5185 6.92328423,17.8007143 C7.05061983,17.9286429 7.22713798,18 7.41106719,18 C7.41578333,18 7.42117319,18 7.42588933,18 C7.61520841,18 7.79374775,17.9157857 7.91838843,17.7801429 L10.2178405,15.2665714 C13.2732213,11.6955 14.8221344,8.93828571 14.8221344,7.07142857 C14.8221344,3.1725 11.4972602,0 7.41106719,0 Z M7.98114929,10.5882353 C6.0916692,10.5882353 4.56065673,9.16644706 4.56065673,7.41176471 C4.56065673,5.65708235 6.0916692,4.23529412 7.98114929,4.23529412 C9.87062937,4.23529412 11.4016418,5.65708235 11.4016418,7.41176471 C11.4016418,9.16644706 9.87062937,10.5882353 7.98114929,10.5882353 Z" id="Shape"></path>
                        </g>
                    </g>
                </g>
            </g>
        </g>
    </g>
</svg>