<svg width="30px" height="30px" viewBox="0 0 30 30" version="1.1" xmlns="http://www.w3.org/2000/svg" xmlns:xlink="http://www.w3.org/1999/xlink">
    <g id="功能页" stroke="none" stroke-width="1" fill="none" fill-rule="evenodd">
        <g id="功能页-作物列表" transform="translate(-457.000000, -189.000000)" fill="#FFFFFF" fill-rule="nonzero">
            <g id="存在作物列表" transform="translate(43.000000, 49.000000)">
                <g id="map" transform="translate(414.000000, 140.000000)">
                    <path d="M2.50071429,23.3742857 L8.74928571,26.1535714 L8.74928571,6.62571429 L2.50071429,3.84642857 L2.50071429,23.3742857 Z M20.07,25.5857143 L11.25,29.9721429 L11.25,30 L11.22,29.9871429 L11.1921429,30 L8.74928571,28.8985714 L8.74928571,28.8878571 L0,25.0007143 L0,0 L9.93214286,4.41428571 L18.75,0.0428571429 L18.75,0 L18.7928571,0.0214285714 L18.8207143,0.00642857143 L20.2135714,0.649285714 L30,5.00142857 L30,30 L20.07,25.5857143 Z M18.75,2.83285714 L11.25,6.55071429 L11.25,27.18 L18.75,23.4514286 L18.75,2.83285714 Z M21.2507143,23.3742857 L27.4992857,26.1535714 L27.4992857,6.62571429 L21.2507143,3.84642857 L21.2507143,23.3742857 L21.2507143,23.3742857 Z" id="Shape"></path>
                </g>
            </g>
        </g>
    </g>
</svg>