<svg width="17px" height="17px" viewBox="0 0 17 17" version="1.1" xmlns="http://www.w3.org/2000/svg" xmlns:xlink="http://www.w3.org/1999/xlink">
    <g id="图片目录说明" stroke="none" stroke-width="1" fill="none" fill-rule="evenodd" opacity="0.619628906">
        <g id="Artboard" transform="translate(-572.000000, -534.000000)" fill="#515151" fill-rule="nonzero">
            <g id="Group" transform="translate(572.000000, 534.000000)">
                <path d="M1.54545455,6.18413636 L1.54545455,1.54545455 L6.18181818,1.54313636 L6.18413636,6.18181818 L1.54545455,6.18413636 Z M6.18413636,0 L1.54313636,0 C0.69141504,0.00127662667 0.00127662667,0.69141504 0,1.54313636 L0,6.18413636 C0.00127662667,7.03585769 0.69141504,7.7259961 1.54313636,7.72727273 L6.18413636,7.72727273 C7.03585769,7.7259961 7.7259961,7.03585769 7.72727273,6.18413636 L7.72727273,1.54313636 C7.7259961,0.69141504 7.03585769,0.00127662667 6.18413636,0 Z M1.54545455,15.4568636 L1.54545455,10.8181818 L6.18181818,10.8158636 L6.18413636,15.4545455 L1.54545455,15.4568636 Z M6.18413636,9.27272727 L1.54313636,9.27272727 C0.69141504,9.2740039 0.00127662667,9.96414231 0,10.8158636 L0,15.4568636 C0.00127662667,16.308585 0.69141504,16.9987234 1.54313636,17 L6.18413636,17 C7.03585769,16.9987234 7.7259961,16.308585 7.72727273,15.4568636 L7.72727273,10.8158636 C7.7259961,9.96414231 7.03585769,9.2740039 6.18413636,9.27272727 Z M10.8181818,6.18413636 L10.8181818,1.54545455 L15.4545455,1.54313636 L15.4568636,6.18181818 L10.8181818,6.18413636 Z M15.4568636,0 L10.8158636,0 C9.96414231,0.00127662667 9.2740039,0.69141504 9.27272727,1.54313636 L9.27272727,6.18413636 C9.2740039,7.03585769 9.96414231,7.7259961 10.8158636,7.72727273 L15.4568636,7.72727273 C16.308585,7.7259961 16.9987234,7.03585769 17,6.18413636 L17,1.54313636 C16.9987234,0.69141504 16.308585,0.00127662667 15.4568636,0 Z M13.1363636,10.8181818 C12.7095981,10.8181818 12.3636364,11.1641436 12.3636364,11.5909091 L12.3636364,16.2272727 C12.3636364,16.6540382 12.7095981,17 13.1363636,17 C13.5631291,17 13.9090909,16.6540382 13.9090909,16.2272727 L13.9090909,11.5909091 C13.9090909,11.1641436 13.5631291,10.8181818 13.1363636,10.8181818 M10.0454545,10.8181818 C9.61868906,10.8181818 9.27272727,11.1641436 9.27272727,11.5909091 L9.27272727,16.2272727 C9.27272727,16.6540382 9.61868906,17 10.0454545,17 C10.47222,17 10.8181818,16.6540382 10.8181818,16.2272727 L10.8181818,11.5909091 C10.8181818,11.1641436 10.47222,10.8181818 10.0454545,10.8181818 M16.2272727,9.27272727 C15.8005072,9.27272727 15.4545455,9.61868906 15.4545455,10.0454545 L15.4545455,16.2272727 C15.4545455,16.6540382 15.8005072,17 16.2272727,17 C16.6540382,17 17,16.6540382 17,16.2272727 L17,10.0454545 C17,9.61868906 16.6540382,9.27272727 16.2272727,9.27272727" id="Shape"></path>
            </g>
        </g>
    </g>
</svg>