<svg width="194px" height="68px" viewBox="0 0 194 68" version="1.1" xmlns="http://www.w3.org/2000/svg" xmlns:xlink="http://www.w3.org/1999/xlink">
    <g id="功能页" stroke="none" stroke-width="1" fill="none" fill-rule="evenodd">
        <g id="功能页-无作物数据" transform="translate(-184.000000, -496.000000)" fill="#E0C696">
            <g id="不存在作物页面" transform="translate(27.000000, 49.000000)">
                <g id="不存在作物提示" transform="translate(157.000000, 447.492685)">
                    <g id="Group" transform="translate(0.041089, 0.000000)">
                        <path d="M33.7519184,11.1317051 C21.0914655,47.5980384 -42.261042,55 46.4123712,55 C105.52798,55 138.244386,55 144.561591,55 C177.998904,25.7544701 187.958335,11.1317051 174.439883,11.1317051 C160.320696,11.1317051 144.561591,0.0565921053 95.1651398,0.00113243867 C78.7389762,-0.0173099705 37.5969977,0.0565921053 33.7519184,11.1317051 Z" id="Path-3" fill-opacity="0.94"></path>
                        <path d="M46.7519184,23.1317051 C34.0914655,59.5980384 -29.261042,67 59.4123712,67 C118.52798,67 151.244386,67 157.561591,67 C190.998904,37.7544701 200.958335,23.1317051 187.439883,23.1317051 C173.320696,23.1317051 157.561591,12.0565921 108.16514,12.0011324 C91.7389762,11.98269 50.5969977,12.0565921 46.7519184,23.1317051 Z" id="Path-3" fill-opacity="0.55"></path>
                    </g>
                </g>
            </g>
        </g>
    </g>
</svg>