<svg width="116px" height="106px" viewBox="0 0 116 106" version="1.1" xmlns="http://www.w3.org/2000/svg" xmlns:xlink="http://www.w3.org/1999/xlink">
    <g id="新手引导页" stroke="none" stroke-width="1" fill="none" fill-rule="evenodd">
        <g id="引导页-2" transform="translate(-227.000000, -363.000000)" fill-rule="nonzero">
            <g id="Group" transform="translate(227.000000, 363.000000)">
                <path d="M55.486377,106 C41.1277614,106 27.5865243,104.266523 17.3692931,101.113506 C6.00773196,97.6056034 0,92.7327586 0,87 C0,81.2672414 6.00773196,76.3943966 17.3829161,72.8864943 C27.6001473,69.733477 41.1413844,68 55.5,68 C69.8586156,68 83.3862297,69.733477 93.6170839,72.8864943 C104.978645,76.3943966 111,81.2808908 111,87 C111,92.7327586 104.992268,97.6056034 93.6170839,101.113506 C83.3726068,104.266523 69.8449926,106 55.486377,106 Z M55.486377,73.4461207 C41.6590574,73.4461207 28.6899853,75.0977011 18.9768041,78.0869253 C14.4812224,79.4791667 10.8438881,81.1170977 8.47349043,82.8642241 C7.09756996,83.8742816 5.44918999,85.4030172 5.44918999,86.9863506 C5.44918999,88.5696839 7.09756996,90.112069 8.47349043,91.108477 C10.857511,92.841954 14.4812224,94.4935345 18.9768041,95.8857759 C28.6899853,98.8886494 41.6590574,100.52658 55.486377,100.52658 C69.3136966,100.52658 82.2827688,98.875 91.9959499,95.8857759 C96.4915317,94.4935345 100.128866,92.8556034 102.499264,91.108477 C103.875184,90.0984195 105.523564,88.5696839 105.523564,86.9863506 C105.523564,85.4030172 103.875184,83.8606322 102.499264,82.8642241 C100.115243,81.1307471 96.4915317,79.4791667 91.9959499,78.0869253 C82.2827688,75.0977011 69.3136966,73.4461207 55.486377,73.4461207 Z" id="Shape" fill="#E6E6E6"></path>
                <path d="M56,94 C47.6368924,94 39.7262152,92.8797872 33.7349398,90.8606383 C24.8645617,87.8595745 23,83.8489362 23,81 C23,78.1510638 24.8645617,74.1404255 33.7349398,71.1393617 C39.7262152,69.1202128 47.6231824,68 56,68 C64.3768176,68 72.2737848,69.1340426 78.2650602,71.1531915 C87.1354383,74.1542553 89,78.1648936 89,81.0138298 C89,83.862766 87.1354383,87.8734043 78.2650602,90.8744681 C72.2737848,92.893617 64.3631076,94 56,94 L56,94 Z M56,73.5457447 C48.2127129,73.5457447 40.9189863,74.5553191 35.4761113,76.3946809 C30.3485667,78.1234043 28.484005,80.1010638 28.484005,81 C28.484005,81.8989362 30.3485667,83.8765957 35.4761113,85.6053191 C40.9189863,87.4446809 48.1990029,88.4542553 56,88.4542553 C63.8009971,88.4542553 71.0810137,87.4446809 76.5238887,85.6053191 C81.6514333,83.8765957 83.515995,81.8989362 83.515995,81 C83.515995,80.1010638 81.6514333,78.1234043 76.5238887,76.3946809 C71.0810137,74.5691489 63.7872871,73.5457447 56,73.5457447 Z" id="Shape" fill="#1296DB"></path>
                <path d="M55.2092406,83 C55.1560211,82.7662453 53.7856184,77.3073852 53.2268134,69.5384786 C52.7079231,62.3195831 52.827667,51.6631182 56.3401555,41.9004214 C60.0921318,31.4914615 67.4497308,21.4125083 67.7557431,21 L72,24.3275671 C71.9334756,24.423819 64.8020596,34.1865159 61.3294857,43.8254602 C58.1629241,52.6256376 58.0564851,62.3883344 58.5221559,69.0297183 C59.0410463,76.3311155 60.3316197,81.5837214 60.3449246,81.6249723 L55.2092406,83 L55.2092406,83 Z" id="Path" fill="#E6E6E6"></path>
                <path d="M82.9806903,31.0851977 C80.9523276,31.0851977 78.8006186,30.686338 76.5803838,29.9023724 C71.9343368,28.2656722 68.4669331,25.4461466 68.3161764,25.3223626 C67.6720342,24.7997188 67.3019951,24.0157532 67.3153325,23.1905262 C67.3153325,22.6266211 67.4390466,9.18917506 77.5945651,2.97246511 C86.0232343,-2.19895732 98.4538082,-0.617272266 114.516248,7.67625892 C115.475608,8.17139511 116.051225,9.18917506 115.996404,10.2619701 C115.941584,11.348519 115.256326,12.2837762 114.25585,12.682636 C114.132503,12.7376511 101.660814,17.7165206 93.2321448,26.6152182 C90.8474482,29.1321605 87.969366,30.6038153 84.6801293,30.9751674 C84.1456283,31.0439364 83.5700119,31.0851977 82.9806903,31.0851977 L82.9806903,31.0851977 Z M72.8936976,21.8564093 C74.0860459,22.6678825 76.1418189,23.9194767 78.5265155,24.7447037 C83.0629212,26.312635 86.5714404,25.679961 89.2850607,22.8191741 C94.945289,16.8500322 102.044558,12.5588519 106.841362,10.083171 C101.112608,7.55247488 96.0005858,6.05331252 91.5875265,5.62694525 C87.1059414,5.20057797 83.3644346,5.88826712 80.4452369,7.66250514 C74.4972005,11.3347652 73.1815058,18.8168232 72.8936976,21.8564093 L72.8936976,21.8564093 Z M35.3963986,44 C34.0258833,44 32.7238937,43.7799395 31.4904299,43.3398184 C28.0915519,42.1432393 25.3642265,39.2136835 24.1992884,35.5139158 C21.6638351,27.5092141 12.0428176,24.4833818 11.9468815,24.4421205 C10.823059,24.0982759 10.0418653,23.0667422 10.0007498,21.8839168 C9.97333949,20.7010915 10.6997126,19.6282964 11.80983,19.2294367 C23.8292493,14.8694875 33.1624586,15.0207791 39.5627651,19.655804 C48.0051395,25.7762374 47.7995622,37.2468925 47.785857,37.7282749 C47.7584467,38.6222708 47.3061766,39.4474978 46.5660984,39.942634 C42.5230782,42.6383755 38.7815714,44 35.3963986,44 Z M20.2384992,22.4340682 C23.7607235,24.7309499 27.7078077,28.3894562 29.434657,33.8497081 C29.6813497,34.6199199 30.6818259,37.2056312 33.3269204,38.1546422 C35.6293862,38.9661154 38.6993405,38.29218 42.2626803,36.1878512 C42.0296927,33.4646022 40.9881011,27.4404452 36.3420541,24.1120297 C32.5868422,21.4025344 27.1870118,20.8523831 20.2384992,22.4340682 Z" id="Shape" fill="#E6E6E6"></path>
                <path d="M53.5060241,53 C52.4733219,40.5595238 43.0963855,39.2955182 43,39.2822129 L43.6746988,34 C44.0464716,34.039916 47.4199656,34.5056022 50.9724613,37.0469188 C54.2358003,39.3753501 58.2839931,43.9656863 59,52.5742297 L53.5060241,53 L53.5060241,53 Z" id="Path" fill="#E6E6E6"></path>
            </g>
        </g>
    </g>
</svg>