<svg width="82px" height="82px" viewBox="0 0 82 82" version="1.1" xmlns="http://www.w3.org/2000/svg" xmlns:xlink="http://www.w3.org/1999/xlink">
    <g id="新手引导页" stroke="none" stroke-width="1" fill="none" fill-rule="evenodd">
        <g id="引导页-3" transform="translate(-245.000000, -374.000000)" fill="#E6E6E6" fill-rule="nonzero">
            <g id="Group" transform="translate(245.000000, 374.000000)">
                <path d="M9.27292037,7.65690322 C7.56582287,7.65690322 6.18194691,9.04375898 6.18194691,10.7545323 L6.18194691,29.3403064 C6.18194691,31.0510797 7.56582287,32.4379355 9.27292037,32.4379355 L27.8187611,32.4379355 C29.5258586,32.4379355 30.9097346,31.0510797 30.9097346,29.3403064 L30.9097346,10.7545323 C30.9097346,9.04375898 29.5258586,7.65690322 27.8187611,7.65690322 L9.27292037,7.65690322 Z M9.27292037,1.46164515 L27.8187611,1.46164515 C32.9400536,1.46164515 37.0916815,5.62221243 37.0916815,10.7545323 L37.0916815,29.3403064 C37.0916815,34.4726263 32.9400536,38.6331935 27.8187611,38.6331935 L9.27292037,38.6331935 C4.15162786,38.6331935 0,34.4726263 0,29.3403064 L0,10.7545323 C0,5.62221243 4.15162786,1.46164515 9.27292037,1.46164515 Z M9.27292037,51.0237097 C7.56582287,51.0237097 6.18194691,52.4105654 6.18194691,54.1213387 L6.18194691,72.7071129 C6.18194691,74.4178862 7.56582287,75.8047419 9.27292037,75.8047419 L27.8187611,75.8047419 C29.5258586,75.8047419 30.9097346,74.4178862 30.9097346,72.7071129 L30.9097346,54.1213387 C30.9097346,52.4105654 29.5258586,51.0237097 27.8187611,51.0237097 L9.27292037,51.0237097 Z M9.27292037,44.8284516 L27.8187611,44.8284516 C32.9400536,44.8284516 37.0916815,48.9890189 37.0916815,54.1213387 L37.0916815,72.7071129 C37.0916815,77.8394327 32.9400536,82 27.8187611,82 L9.27292037,82 C4.15162786,82 0,77.8394327 0,72.7071129 L0,54.1213387 C0,48.9890189 4.15162786,44.8284516 9.27292037,44.8284516 Z M52.5465488,51.0237097 C50.8394512,51.0237097 49.4555753,52.4105654 49.4555753,54.1213387 L49.4555753,72.7071129 C49.4555753,74.4178862 50.8394512,75.8047419 52.5465488,75.8047419 L71.0923895,75.8047419 C72.799487,75.8047419 74.1833629,74.4178862 74.1833629,72.7071129 L74.1833629,54.1213387 C74.1833629,52.4105654 72.799487,51.0237097 71.0923895,51.0237097 L52.5465488,51.0237097 Z M52.5465488,44.8284516 L71.0923895,44.8284516 C76.213682,44.8284516 80.3653099,48.9890189 80.3653099,54.1213387 L80.3653099,72.7071129 C80.3653099,77.8394327 76.213682,82 71.0923895,82 L52.5465488,82 C47.4252562,82 43.2736284,77.8394327 43.2736284,72.7071129 L43.2736284,54.1213387 C43.2736284,48.9890189 47.4252562,44.8284516 52.5465488,44.8284516 Z M48.902291,17.9441292 C48.3218772,18.5251461 47.9957498,19.3135624 47.9957498,20.1357018 C47.9957498,20.9578412 48.3218772,21.7462574 48.902291,22.3272743 L59.7206981,33.1689759 C60.3004666,33.7506396 61.0871889,34.0774692 61.9075619,34.0774692 C62.7279348,34.0774692 63.5146571,33.7506396 64.0944256,33.1689759 L74.9128327,22.3272743 C75.4932465,21.7462574 75.8193739,20.9578412 75.8193739,20.1357018 C75.8193739,19.3135624 75.4932465,18.5251461 74.9128327,17.9441292 L64.0944256,7.10242762 C63.5146571,6.520764 62.7279348,6.19393436 61.9075619,6.19393436 C61.0871889,6.19393436 60.3004666,6.520764 59.7206981,7.10242762 L48.902291,17.9441292 L48.902291,17.9441292 Z M44.5316546,13.5640818 L55.3500617,2.72238017 C57.0891167,0.979285315 59.4479583,0 61.9075619,0 C64.3671654,0 66.726007,0.979285315 68.465062,2.72238017 L79.2834691,13.5640818 C81.0228188,15.3068814 82,17.6708021 82,20.1357018 C82,22.6006014 81.0228188,24.9645222 79.2834691,26.7073218 L68.465062,37.5490234 C66.726007,39.2921182 64.3671654,40.2714036 61.9075619,40.2714036 C59.4479583,40.2714036 57.0891167,39.2921182 55.3500617,37.5490234 L44.5316546,26.7073218 C42.7923049,24.9645222 41.8151237,22.6006014 41.8151237,20.1357018 C41.8151237,17.6708021 42.7923049,15.3068814 44.5316546,13.5640818 L44.5316546,13.5640818 Z" id="Shape"></path>
            </g>
        </g>
    </g>
</svg>