<svg width="99px" height="99px" viewBox="0 0 99 99" version="1.1" xmlns="http://www.w3.org/2000/svg" xmlns:xlink="http://www.w3.org/1999/xlink">
    <g id="新手引导页" stroke="none" stroke-width="1" fill="none" fill-rule="evenodd">
        <g id="引导页-4" transform="translate(-236.000000, -366.000000)" fill="#13227A" fill-rule="nonzero">
            <g id="Group" transform="translate(236.000000, 366.000000)">
                <path d="M84.8571429,56.5714286 L84.8571429,42.4285714 L99,42.4285714 L99,56.5714286 L84.8571429,56.5714286 Z M49.5,84.8571429 C29.9727892,84.8571429 14.1428571,69.0272108 14.1428571,49.5 C14.1428571,29.9727892 29.9727892,14.1428571 49.5,14.1428571 C69.0272108,14.1428571 84.8571429,29.9727892 84.8571429,49.5 C84.8571429,58.8772973 81.132026,67.870525 74.5012755,74.5012755 C67.870525,81.132026 58.8772973,84.8571429 49.5,84.8571429 Z M49.5,28.2857143 C37.7836735,28.2857143 28.2857143,37.7836735 28.2857143,49.5 C28.2857143,61.2163265 37.7836735,70.7142857 49.5,70.7142857 C61.2163265,70.7142857 70.7142857,61.2163265 70.7142857,49.5 C70.7142857,37.7836735 61.2163265,28.2857143 49.5,28.2857143 Z M56.5714286,99 L42.4285714,99 L42.4285714,84.8571429 L56.5714286,84.8571429 L56.5714286,99 Z M0,56.5714286 L0,42.4285714 L14.1428571,42.4285714 L14.1428571,56.5714286 L0,56.5714286 Z M42.4285714,0 L56.5714286,0 L56.5714286,14.1428571 L42.4285714,14.1428571 L42.4285714,0 Z" id="Shape"></path>
            </g>
        </g>
    </g>
</svg>