<svg width="32px" height="26px" viewBox="0 0 32 26" version="1.1" xmlns="http://www.w3.org/2000/svg" xmlns:xlink="http://www.w3.org/1999/xlink">
    <g id="新手引导页" stroke="none" stroke-width="1" fill="none" fill-rule="evenodd">
        <g id="引导页-2" transform="translate(-441.000000, -946.000000)" fill="#33A852" fill-rule="nonzero">
            <g id="Group" transform="translate(427.000000, 928.000000)">
                <path d="M32.9745698,44 C33.2612729,44 33.5740399,43.8959739 33.7825512,43.6619153 L45.667698,31.8029446 C46.1107673,31.3563875 46.1107673,30.6370979 45.667698,30.1905407 L33.7825512,18.3315701 C33.3350084,17.8894766 32.6141311,17.8894766 32.1665883,18.3315701 C31.6974377,18.7736808 31.6974377,19.5018632 32.1665883,19.9699805 L43.2176897,30.9967427 L32.1665883,42.0235049 C31.6974377,42.4916222 31.6974377,43.2198046 32.1665883,43.6619153 C32.3750996,43.8959739 32.6878666,44 32.9745698,44 Z M15.1468495,32.1410293 L43.2176897,32.1410293 C43.8488435,32.1357295 44.3591906,31.6265064 44.3645209,30.9967427 C44.3662482,30.6927283 44.2459845,30.4006611 44.0305358,30.1856869 C43.815087,29.9707127 43.5223752,29.8507138 43.2176897,29.8524373 L15.1468495,29.8524373 C14.842164,29.8507138 14.5494522,29.9707127 14.3340035,30.1856869 C14.1185548,30.4006611 13.998291,30.6927283 14.0000184,30.9967427 C14.0000184,31.620899 14.5213155,32.1410293 15.1468495,32.1410293 Z" id="Shape"></path>
            </g>
        </g>
    </g>
</svg>